<?xml version="1.0" encoding="utf-8"?>
<!-- Generator: Adobe Illustrator 27.5.0, SVG Export Plug-In . SVG Version: 6.00 Build 0)  -->
<svg version="1.1" id="Layer_1" xmlns="http://www.w3.org/2000/svg" xmlns:xlink="http://www.w3.org/1999/xlink" x="0px" y="0px"
	 viewBox="0 0 5000 5000" style="enable-background:new 0 0 5000 5000;" xml:space="preserve">
<rect x="-2.94" y="-3.581" style="fill:#FFFFFF;" width="5002.94" height="5003.581"/>
<g>
	<path style="fill:#FFFFFF;" d="M1619.454,4657.332h-60.425v-21.812h147.082v21.812h-60.719v176.853h-25.938V4657.332z"/>
	<path style="fill:#FFFFFF;" d="M1753.858,4635.521v198.664h-25.644v-198.664H1753.858z"/>
	<path style="fill:#FFFFFF;" d="M1966.079,4746.938c-1.474-27.707-3.242-61.015-2.947-85.773h-0.884
		c-6.779,23.286-15.033,48.045-25.055,75.457l-35.075,96.384h-19.454l-32.128-94.615c-9.433-28.002-17.391-53.646-22.991-77.226
		h-0.59c-0.589,24.759-2.063,58.066-3.831,87.838l-5.306,85.183h-24.465l13.854-198.664h32.718l33.896,96.09
		c8.253,24.465,15.032,46.276,20.043,66.909h0.885c5.011-20.044,12.085-41.855,20.928-66.909l35.37-96.09h32.718l12.38,198.664
		h-25.055L1966.079,4746.938z"/>
	<path style="fill:#FFFFFF;" d="M2138.503,4741.042h-77.226v71.625h86.068v21.518h-111.712v-198.664h107.29v21.518h-81.646v62.781
		h77.226V4741.042z"/>
	<path style="fill:#FFFFFF;" d="M2268.775,4635.521v198.664h-25.644v-198.664H2268.775z"/>
	<path style="fill:#FFFFFF;" d="M2310.039,4802.94c11.495,7.074,28.297,12.969,45.981,12.969c26.233,0,41.561-13.854,41.561-33.896
		c0-18.569-10.611-29.18-37.434-39.496c-32.423-11.496-52.467-28.297-52.467-56.299c0-30.949,25.644-53.939,64.257-53.939
		c20.338,0,35.075,4.716,43.918,9.727l-7.074,20.928c-6.484-3.537-19.748-9.431-37.729-9.431c-27.117,0-37.434,16.21-37.434,29.769
		c0,18.569,12.085,27.707,39.497,38.318c33.603,12.969,50.698,29.18,50.698,58.361c0,30.654-22.696,57.182-69.563,57.182
		c-19.159,0-40.086-5.6-50.697-12.674L2310.039,4802.94z"/>
	<path style="fill:#FFFFFF;" d="M2688.791,4746.938c-1.474-27.707-3.242-61.015-2.947-85.773h-0.884
		c-6.78,23.286-15.033,48.045-25.055,75.457l-35.075,96.384h-19.454l-32.128-94.615c-9.433-28.002-17.391-53.646-22.991-77.226
		h-0.59c-0.589,24.759-2.063,58.066-3.831,87.838l-5.306,85.183h-24.465l13.854-198.664h32.718l33.896,96.09
		c8.253,24.465,15.032,46.276,20.043,66.909h0.885c5.011-20.044,12.085-41.855,20.928-66.909l35.37-96.09h32.718l12.38,198.664
		h-25.055L2688.791,4746.938z"/>
	<path style="fill:#FFFFFF;" d="M2928.124,4732.789c0,68.383-41.561,104.638-92.258,104.638c-52.467,0-89.311-40.675-89.311-100.806
		c0-63.077,39.202-104.343,92.258-104.343C2893.048,4632.278,2928.124,4673.839,2928.124,4732.789z M2773.968,4736.031
		c0,42.444,22.99,80.468,63.372,80.468c40.676,0,63.667-37.434,63.667-82.531c0-39.496-20.633-80.762-63.372-80.762
		C2795.189,4653.206,2773.968,4692.407,2773.968,4736.031z"/>
	<path style="fill:#FFFFFF;" d="M2961.427,4834.185v-198.664h28.002l63.666,100.511c14.738,23.286,26.233,44.214,35.666,64.552
		l0.589-0.295c-2.357-26.528-2.947-50.697-2.947-81.646v-83.121h24.17v198.664h-25.938l-63.077-100.806
		c-13.854-22.106-27.117-44.803-37.139-66.319l-0.885,0.295c1.474,25.053,2.063,48.929,2.063,81.941v84.889H2961.427z"/>
	<path style="fill:#FFFFFF;" d="M3258.239,4741.042h-77.226v71.625h86.068v21.518H3155.37v-198.664h107.29v21.518h-81.646v62.781
		h77.226V4741.042z"/>
	<path style="fill:#FFFFFF;" d="M3345.478,4834.185v-84.3l-62.782-114.364h29.181l28.001,54.824
		c7.664,15.032,13.56,27.117,19.749,40.971h0.59c5.6-12.969,12.379-25.938,20.043-40.971l28.591-54.824h29.181l-66.614,114.07
		v84.594H3345.478z"/>
</g>
<g>
	<g>
		<path style="fill:#F48967;" d="M3880.377,2757.47h-678.863v831.02h678.863V2757.47z M3860.846,3568.958h-639.801v-791.959h639.801
			V3568.958z"/>
		<rect x="3273.361" y="2861.442" style="fill:#F48967;" width="535.174" height="19.538"/>
		<rect x="3273.361" y="3471.601" style="fill:#F48967;" width="535.174" height="19.536"/>
		<rect x="3273.361" y="2929.233" style="fill:#F48967;" width="535.174" height="19.538"/>
		<rect x="3273.361" y="2997.032" style="fill:#F48967;" width="535.174" height="19.538"/>
		<rect x="3273.361" y="3268.214" style="fill:#F48967;" width="535.174" height="19.533"/>
		<rect x="3273.361" y="3336.011" style="fill:#F48967;" width="535.174" height="19.533"/>
		<rect x="3273.361" y="3403.81" style="fill:#F48967;" width="535.174" height="19.533"/>
		<rect x="3273.361" y="3064.831" style="fill:#F48967;" width="535.174" height="19.533"/>
		<rect x="3273.361" y="3132.624" style="fill:#F48967;" width="535.174" height="19.534"/>
		<rect x="3273.361" y="3200.418" style="fill:#F48967;" width="535.174" height="19.534"/>
		<polygon style="fill:#F48967;" points="3634.641,2619.983 3634.641,2748.533 3615.115,2748.533 3615.115,2639.513 
			2975.313,2639.513 2975.313,3431.472 3190.467,3431.472 3190.467,3451.003 2955.783,3451.003 2955.783,2619.983 		"/>
		<rect x="3027.633" y="2723.951" style="fill:#F48967;" width="535.166" height="19.531"/>
		<rect x="3027.633" y="3334.109" style="fill:#F48967;" width="162.834" height="19.528"/>
		<rect x="3027.633" y="2791.745" style="fill:#F48967;" width="162.834" height="19.533"/>
		<rect x="3027.633" y="2859.546" style="fill:#F48967;" width="162.834" height="19.531"/>
		<rect x="3027.633" y="3130.729" style="fill:#F48967;" width="162.834" height="19.526"/>
		<rect x="3027.633" y="3198.521" style="fill:#F48967;" width="162.834" height="19.532"/>
		<rect x="3027.633" y="3266.318" style="fill:#F48967;" width="162.834" height="19.528"/>
		<rect x="3027.633" y="2927.337" style="fill:#F48967;" width="162.834" height="19.534"/>
		<rect x="3027.633" y="2995.134" style="fill:#F48967;" width="162.834" height="19.533"/>
		<rect x="3027.633" y="3062.927" style="fill:#F48967;" width="162.834" height="19.537"/>
	</g>
</g>
<g>
	<g>
		<g>
			<g>
				<path style="fill:#F48967;" d="M1616.524,3821.055c20.901-90.253-35.516-180.683-125.759-201.583
					c-90.253-20.894-180.671,35.53-201.576,125.771c-20.904,90.255,35.523,180.678,125.773,201.576
					C1505.208,3967.717,1595.631,3911.296,1616.524,3821.055z M1525.892,3800.059c-9.323,40.304-49.596,65.462-89.94,56.118
					c-40.328-9.341-65.479-49.644-56.15-89.949c9.349-40.336,49.654-65.479,89.979-56.144
					C1510.124,3719.43,1535.24,3759.718,1525.892,3800.059z"/>
			</g>
		</g>
		<g>
			<g>
				<path style="fill:#F48967;" d="M1687.362,3700.095c-3.324-9.46-7.179-18.705-11.639-27.662l53.967-46.859l-81.897-94.375
					l-53.981,46.871c-8.194-5.664-16.748-10.916-25.709-15.556l16.105-69.577l-121.726-28.189l-16.118,69.576
					c-10.081,0.223-20.082,1.18-29.926,2.67l-27.901-65.839l-115.051,48.772l27.891,65.79c-7.964,6.104-15.478,12.714-22.668,19.747
					l-61.29-36.877l-64.402,107.04l61.271,36.891c-1.423,4.729-2.728,9.574-3.856,14.481c-1.145,4.931-2.095,9.839-2.904,14.709
					l-71.267,6.236l10.812,124.451l71.26-6.203c3.375,9.459,7.203,18.713,11.678,27.688l-53.975,46.883l81.9,94.332l53.991-46.871
					c8.216,5.617,16.771,10.892,25.729,15.554l-16.118,69.581l121.729,28.192l16.112-69.587c10.098-0.251,20.085-1.226,29.936-2.662
					l27.878,65.831l115.029-48.72l-27.854-65.836c7.949-6.096,15.473-12.721,22.611-19.749l61.313,36.907l64.414-107.035
					l-61.262-36.932c1.416-4.724,2.709-9.551,3.847-14.479c1.143-4.918,2.103-9.835,2.913-14.706l71.246-6.2l-10.806-124.472
					L1687.362,3700.095z M1632.802,3824.817c-22.977,99.225-122.391,161.246-221.615,138.277
					c-99.216-22.981-161.243-122.393-138.268-221.614c22.978-99.222,122.392-161.256,221.616-138.277
					C1593.75,3626.185,1655.773,3725.594,1632.802,3824.817z"/>
			</g>
		</g>
		<path style="fill:#F48967;" d="M2482.264,3944.565l60.886-52.857l-92.406-106.492l-60.898,52.88
			c-9.255-6.395-18.905-12.308-29.024-17.538l18.182-78.512l-137.336-31.805l-18.179,78.509
			c-11.373,0.251-22.661,1.325-33.771,3.007l-31.475-74.28l-129.823,55.032l31.474,74.222c-8.986,6.885-17.449,14.35-25.564,22.276
			l-69.154-41.604l-72.676,120.775l69.146,41.611c-1.606,5.355-3.081,10.811-4.367,16.349c-1.288,5.565-2.354,11.102-3.263,16.596
			l-80.412,7.041l12.19,140.411l80.401-7.006c3.806,10.683,8.135,21.124,13.178,31.244l-60.905,52.892l92.425,106.43l60.9-52.88
			c9.282,6.339,18.934,12.291,29.042,17.541l-18.188,78.519l137.343,31.808l18.183-78.514c11.384-0.28,22.658-1.389,33.767-3
			l31.468,74.267l129.778-54.974l-31.434-74.271c8.97-6.883,17.466-14.35,25.516-22.281l69.173,41.635l72.676-120.759
			l-69.127-41.671c1.604-5.333,3.053-10.773,4.344-16.344c1.283-5.529,2.373-11.084,3.293-16.586l80.385-6.989l-12.193-140.437
			l-80.426,6.973C2491.642,3965.111,2487.297,3954.68,2482.264,3944.565z M2433.829,4116.511
			c-25.927,111.938-138.087,181.917-250.037,155.996c-111.941-25.922-181.926-138.09-156.006-250.033
			c25.935-111.951,138.092-181.928,250.036-156.008C2389.773,3892.39,2459.758,4004.551,2433.829,4116.511z"/>
		<path style="fill:#F48967;" d="M2415.472,4112.256c23.588-101.83-40.071-203.852-141.901-227.431
			c-101.819-23.582-203.841,40.081-227.421,141.906c-23.588,101.814,40.071,203.844,141.896,227.426
			C2289.873,4277.737,2391.895,4214.075,2415.472,4112.256z M2313.214,4088.563c-10.532,45.481-55.961,73.863-101.48,63.318
			c-45.497-10.539-73.884-56.012-63.344-101.492c10.533-45.507,56.027-73.874,101.518-63.336
			C2295.419,3997.591,2323.753,4043.056,2313.214,4088.563z"/>
	</g>
</g>
<g>
	<g>
		<path style="fill:#F48967;" d="M4161.557,1534.726v-82.603h-122.574v82.603h-476.775v-82.603h-122.576v82.603h-116.658v870.502
			h955.244v-870.502H4161.557z M4062.094,1475.233h76.352v129.771h-76.352V1475.233z M3462.734,1475.233h76.359v129.771h-76.359
			V1475.233z M4255.111,2382.113H3346.08v-652.695h909.031V2382.113z M4255.111,1706.309H3346.08v-148.475h93.551v70.281h122.576
			v-70.281h476.775v70.281h122.574v-70.281h93.555V1706.309z"/>
		<path style="fill:#F48967;" d="M3782.906,2217.809h-182.389l15.375-14.196c91.414-88.064,156.115-157.265,156.115-246.034
			c0-69.831-45.482-140.296-147.107-140.296c-49.219,0-96.375,16.932-132.781,47.69l-6.672,5.629l28.912,64.028l11.68-9.726
			c19.047-15.874,49.547-34.793,86.592-34.793c50.646,0,76.328,25.192,76.328,74.834c-0.627,60.748-48.059,115.614-161.326,223.429
			l-50.516,49.038v53.229h305.789V2217.809z M3759.797,2267.527h-259.563v-20.345l43.412-42.151
			c113.92-108.443,167.674-167.461,168.418-239.966c0-62.321-36.236-98.063-99.434-98.063c-37.576,0-68.828,16.205-89.482,30.942
			l-9.357-20.742c31.195-23.757,70.527-36.807,111.109-36.807c91.529,0,123.998,63.125,123.998,117.183
			c0,79.64-61.727,145.269-148.857,229.223l-39.152,36.129v17.985h198.908V2267.527z"/>
		<path style="fill:#F48967;" d="M3950.4,2226.655c-40.422,0-77.754-17.081-91.854-26.104l-12.283-7.856l-24.213,68.595l7.563,4.967
			c22.404,14.701,67.654,31.873,121.453,31.873c119.504,0,172.992-72.511,172.992-144.377c0-52.466-30.242-96.422-79.547-116.564
			c40.408-23.022,62.525-59.228,62.525-102.774c0-58.305-42.742-117.133-138.248-117.133c-50.623,0-98.08,18.236-122.646,36.311
			l-6.953,5.102l23.76,66.086l12.424-8.884c17.514-12.516,49.457-27.14,81.838-27.14c57.494,0,66.088,34.576,66.088,55.188
			c0,46.504-52.15,63.382-87.207,63.382h-44.938v68.063h44.938c47.064,0,102.248,20.216,102.877,77.213
			c0.354,19.008-6.703,37.313-19.367,50.217C4004.068,2218.633,3980.793,2226.655,3950.4,2226.655z M4062.084,2152.254
			c-0.83-73.788-68.385-99.977-125.992-99.977h-21.822v-21.841h21.822c54.826,0,110.322-29.706,110.322-86.491
			c0-37.85-23.439-78.302-89.203-78.302c-36.555,0-67.686,14.805-82.57,23.333l-7.742-21.506
			c20.938-12.848,59.047-27.075,101.891-27.075c84.99,0,115.137,50.644,115.137,94.02c0,42.883-26.32,76.032-74.119,93.351
			l-7.623,2.767v18.941l9.291,1.847c54.35,10.882,89.482,51.087,89.482,102.433c0,60.365-46.348,121.263-149.891,121.263
			c-42.492,0-80.232-12.328-101.057-23.512l8.641-24.474c14.639,7.283,50.584,22.739,91.75,22.739
			c36.828,0,65.664-10.349,85.699-30.765C4053.074,2201.711,4062.547,2177.366,4062.084,2152.254z"/>
	</g>
</g>
<g>
	<g>
		<path style="fill:#F48967;" d="M885.232,1841.308h-0.372v16.605h0.362l1.002,15.647c2.52,39.338,10.873,76.918,24.836,111.698
			l9.229,22.947h-0.042l8.642,16.635h0.798l4.812,8.427c61.94,108.459,173.243,178.032,297.751,186.108l15.628,1.017v0.533h16.601
			v-0.533l15.636-1.017c124.469-8.061,235.791-77.634,297.761-186.113l4.832-8.422h0.749l9.961-19.196l8.043-20.307
			c13.827-34.93,22.117-72.54,24.656-111.782l1.004-15.642h0.584v-16.605h-0.591l-0.997-15.643
			c-2.515-39.167-10.81-76.783-24.656-111.784l-8.021-20.259l-10.05-19.428h-0.683l-4.819-8.411
			c-62.026-108.353-173.347-177.854-297.773-185.909l-15.636-1.016v-0.778h-16.601v0.778l-15.628,1.016
			c-124.456,8.071-235.782,77.567-297.761,185.909l-4.813,8.411h-0.717l-8.713,16.828h0.042l-9.215,22.932
			c-13.997,34.854-22.354,72.436-24.851,111.705L885.232,1841.308z M1562.445,1674.195h-121.046l-3.79-11.475
			c-13.866-41.952-31.363-77.632-52.047-106.041l-38.525-52.932l59.187,27.985c56.037,26.504,102.406,65.591,137.816,116.164
			L1562.445,1674.195z M1609.188,1841.308h-142.852l-0.552-16.151c-1.313-38.956-6.214-77.208-14.563-113.699l-4.671-20.435h125.488
			l4.481,9.661c17.542,37.747,28.089,79.014,31.342,122.673L1609.188,1841.308z M1572.049,2008.206h-125.498l4.671-20.443
			c8.342-36.418,13.25-74.672,14.563-113.699l0.552-16.15h142.852l-1.325,17.958c-3.253,43.473-13.8,84.733-31.316,122.633
			L1572.049,2008.206z M1347.325,2194.941l38.228-52.578c20.821-28.639,38.34-64.31,52.05-106.027l3.784-11.496h121.071
			l-18.431,26.3c-35.645,50.89-82.018,89.979-137.846,116.184L1347.325,2194.941z M1264.479,2024.84h158.781l-8.557,22.623
			c-30.593,80.917-76.333,133.969-128.805,149.39l-21.42,6.29V2024.84z M1264.479,1857.914h182.864l-0.774,17.455
			c-2.005,44.919-7.391,84.248-16.478,120.214l-3.195,12.623h-162.417V1857.914z M1264.479,1691.023h162.398l3.204,12.598
			c9.087,35.769,14.482,75.093,16.487,120.232l0.774,17.455h-182.864V1691.023z M1264.479,1495.94l21.397,6.269
			c52.4,15.335,98.151,68.376,128.827,149.354l8.575,22.633h-158.8V1495.94z M940.604,1691.023h125.229l-4.696,20.451
			c-8.104,35.253-13.013,73.535-14.599,113.777l-0.63,16.057H903.16l1.333-17.945c3.23-43.758,13.871-85.059,31.587-122.742
			L940.604,1691.023z M1165.445,1503.61l-38.629,53.069c-20.506,28.176-37.969,63.854-51.881,106.041l-3.785,11.475H949.91
			l18.411-26.292c35.289-50.439,81.642-89.521,137.821-116.159L1165.445,1503.61z M1247.878,1674.195H1089.11l8.571-22.623
			c30.59-80.908,76.33-133.95,128.772-149.36l21.425-6.299V1674.195z M1247.878,1841.308h-182.597l0.678-17.368
			c1.724-43.981,7.218-84.461,16.307-120.313l3.202-12.604h162.41V1841.308z M1247.878,2008.206h-162.433l-3.191-12.627
			c-9.226-36.559-14.562-75.914-16.295-120.294l-0.678-17.37h182.597V2008.206z M1226.443,2196.848
			c-52.537-15.495-98.253-68.551-128.775-149.391l-8.532-22.617h158.743v178.327L1226.443,2196.848z M949.91,2024.84h121.258
			l3.768,11.501c13.771,41.947,31.227,77.617,51.881,106.021l38.338,52.706l-58.971-27.756
			c-55.157-25.967-102.842-66.142-137.862-116.173L949.91,2024.84z M903.153,1857.914h142.756l0.63,16.054
			c1.611,40.317,6.519,78.596,14.599,113.78l4.696,20.458H940.58l-4.507-9.633c-17.709-37.844-28.34-79.131-31.58-122.707
			L903.153,1857.914z"/>
	</g>
</g>
<g>
	<g>
		<path style="fill:#F48967;" d="M2064.73,376.956h-678.863v831.018h678.863V376.956z M2045.199,1188.443h-639.8V396.485h639.8
			V1188.443z"/>
		<rect x="1457.714" y="480.928" style="fill:#F48967;" width="535.174" height="19.536"/>
		<rect x="1457.714" y="1091.085" style="fill:#F48967;" width="535.174" height="19.535"/>
		<rect x="1457.714" y="548.72" style="fill:#F48967;" width="535.174" height="19.536"/>
		<rect x="1457.714" y="616.517" style="fill:#F48967;" width="535.174" height="19.539"/>
		<rect x="1457.714" y="887.698" style="fill:#F48967;" width="535.174" height="19.534"/>
		<rect x="1457.714" y="955.495" style="fill:#F48967;" width="535.174" height="19.535"/>
		<rect x="1457.714" y="1023.294" style="fill:#F48967;" width="535.174" height="19.533"/>
		<rect x="1457.714" y="684.314" style="fill:#F48967;" width="535.174" height="19.534"/>
		<rect x="1457.714" y="752.109" style="fill:#F48967;" width="535.174" height="19.533"/>
		<rect x="1457.714" y="819.904" style="fill:#F48967;" width="535.174" height="19.531"/>
		<polygon style="fill:#F48967;" points="1818.994,239.469 1818.994,368.018 1799.468,368.018 1799.468,258.998 1159.665,258.998 
			1159.665,1050.957 1374.82,1050.957 1374.82,1070.488 1140.136,1070.488 1140.136,239.469 		"/>
		<rect x="1211.986" y="343.436" style="fill:#F48967;" width="535.166" height="19.531"/>
		<rect x="1211.986" y="953.593" style="fill:#F48967;" width="162.834" height="19.531"/>
		<rect x="1211.986" y="411.231" style="fill:#F48967;" width="162.834" height="19.531"/>
		<rect x="1211.986" y="479.031" style="fill:#F48967;" width="162.834" height="19.531"/>
		<rect x="1211.986" y="750.213" style="fill:#F48967;" width="162.834" height="19.528"/>
		<rect x="1211.986" y="818.007" style="fill:#F48967;" width="162.834" height="19.531"/>
		<rect x="1211.986" y="885.803" style="fill:#F48967;" width="162.834" height="19.527"/>
		<rect x="1211.986" y="546.821" style="fill:#F48967;" width="162.834" height="19.536"/>
		<rect x="1211.986" y="614.619" style="fill:#F48967;" width="162.834" height="19.533"/>
		<rect x="1211.986" y="682.412" style="fill:#F48967;" width="162.834" height="19.535"/>
	</g>
</g>
<g>
	<g>
		<g>
			<g>
				<path style="fill:#F48967;" d="M3317.805,1206.425c-47.586,79.486-21.639,182.863,57.836,230.449
					c79.486,47.582,182.855,21.628,230.443-57.844c47.596-79.485,21.637-182.861-57.844-230.448
					C3468.762,1101,3365.387,1126.947,3317.805,1206.425z M3397.623,1254.221c21.246-35.498,67.293-47.082,102.824-25.81
					c35.512,21.265,47.082,67.342,25.836,102.84c-21.273,35.524-67.352,47.083-102.865,25.822
					C3387.889,1335.798,3376.35,1289.746,3397.623,1254.221z"/>
			</g>
		</g>
		<g>
			<g>
				<path style="fill:#F48967;" d="M3213.27,1299.812c0.258,10.024,1.09,20.005,2.59,29.897l-65.744,28.037L3199.1,1472.7
					l65.762-28.043c6.063,7.906,12.59,15.529,19.695,22.696l-36.68,61.275l107.201,64.186l36.691-61.274
					c9.664,2.882,19.477,5.04,29.301,6.644l6.352,71.222l124.469-11.112l-6.359-71.175c9.455-3.365,18.633-7.351,27.635-11.839
					l47.016,53.909l94.145-82.114l-46.996-53.913c2.805-4.068,5.533-8.276,8.115-12.6c2.602-4.344,5.014-8.722,7.279-13.108
					l69.742,15.935l27.902-121.766l-69.727-15.961c-0.311-10.038-1.115-20.024-2.619-29.936l65.76-28.056l-49.008-114.913
					l-65.766,28.041c-6.096-7.867-12.617-15.511-19.715-22.697l36.693-61.283l-107.207-64.186l-36.688,61.288
					c-9.688-2.864-19.494-5-29.309-6.656l-6.332-71.208l-124.43,11.07l6.307,71.209c-9.432,3.362-18.627,7.357-27.576,11.855
					l-47.031-53.941l-94.154,82.104l46.975,53.951c-2.797,4.063-5.506,8.259-8.104,12.6c-2.596,4.33-5.02,8.715-7.287,13.104
					l-69.711-15.963l-27.91,121.782L3213.27,1299.812z M3303.469,1197.85c52.318-87.385,165.969-115.907,253.355-63.599
					c87.377,52.32,115.906,165.969,63.592,253.353c-52.314,87.381-165.973,115.916-253.354,63.597
					C3279.684,1398.884,3251.16,1285.235,3303.469,1197.85z"/>
			</g>
		</g>
		<path style="fill:#F48967;" d="M2531.742,823.204l-74.171,31.625l55.269,129.708l74.189-31.642
			c6.842,8.928,14.215,17.517,22.24,25.601l-41.396,69.143l120.949,72.414l41.398-69.142c10.898,3.25,21.969,5.693,33.059,7.504
			l7.162,80.352l140.447-12.536l-7.178-80.296c10.666-3.797,21.012-8.304,31.166-13.36l53.051,60.817l106.234-92.643l-53.041-60.824
			c3.17-4.602,6.25-9.343,9.172-14.219c2.932-4.903,5.645-9.843,8.197-14.794l78.693,17.976l31.486-137.378l-78.674-18.004
			c-0.342-11.336-1.26-22.603-2.953-33.78l74.201-31.652l-55.307-129.657l-74.191,31.642c-6.887-8.882-14.248-17.508-22.254-25.608
			l41.402-69.147l-120.955-72.419l-41.398,69.147c-10.922-3.229-21.99-5.635-33.059-7.508l-7.162-80.34l-140.383,12.497
			l7.123,80.332c-10.646,3.799-21.025,8.298-31.119,13.375l-53.061-60.854l-106.229,92.63l53.006,60.873
			c-3.162,4.588-6.213,9.32-9.152,14.224c-2.914,4.871-5.658,9.822-8.221,14.776l-78.652-18.017l-31.489,137.404l78.684,18.043
			C2529.119,800.773,2530.055,812.034,2531.742,823.204z M2630.607,674.419c59.021-98.581,187.246-130.767,285.84-71.74
			c98.586,59.024,130.773,187.253,71.752,285.845c-59.033,98.59-187.26,130.771-285.848,71.75
			C2603.76,901.244,2571.57,773.019,2630.607,674.419z"/>
		<path style="fill:#F48967;" d="M2646.77,684.101c-53.697,89.68-24.42,206.312,65.262,260.002
			c89.674,53.69,206.309,24.407,259.998-65.27c53.689-89.667,24.414-206.305-65.258-259.997
			C2817.09,565.146,2700.453,594.43,2646.77,684.101z M2736.822,738.03c23.984-40.055,75.932-53.128,116.014-29.124
			c40.07,23.995,53.129,75.984,29.145,116.034c-23.992,40.077-75.994,53.118-116.053,29.13
			C2725.846,830.072,2712.828,778.109,2736.822,738.03z"/>
	</g>
</g>
<path style="fill:#C44822;" d="M2252.691,2218.709c0,0-327.877-237.306-423.886-333.313c-96.008-96.01-97.817-228.25-97.817-228.25
	v-430.76h-57.417c-26.865,0-48.634-21.774-48.634-48.637V966.319c0-26.861,21.769-48.639,48.634-48.639h881.638l881.641-0.001
	c26.863,0,48.637,21.778,48.637,48.64v211.431c0,26.862-21.773,48.636-48.637,48.636h-57.412v430.761
	c0,0-1.813,132.24-97.822,228.25c-96.008,96.007-423.887,333.313-423.887,333.313s-97.209,70.427-104.607,269.283
	c7.398,198.854,104.607,269.286,104.607,269.286s327.879,237.304,423.887,333.313c96.01,96.011,97.822,228.249,97.822,228.249
	v430.761h57.412c26.863,0,48.637,21.774,48.637,48.635v211.432c0,26.862-21.773,48.637-48.637,48.637h-881.641h-881.638
	c-26.865,0-48.634-21.774-48.634-48.637v-211.432c0-26.86,21.769-48.635,48.634-48.635h57.417v-430.761
	c0,0,1.81-132.238,97.817-228.249c96.009-96.01,423.886-333.313,423.886-333.313s97.206-70.432,104.604-269.286
	C2349.897,2289.137,2252.691,2218.709,2252.691,2218.709z"/>
<g>
	<path style="fill:#CF972A;" d="M3762.061,1191.673c0,144.208,116.895,261.105,261.1,261.105s261.105-116.897,261.105-261.105
		c0-144.202-116.9-261.104-261.105-261.104S3762.061,1047.471,3762.061,1191.673z"/>
	<g>
		<rect x="3883.375" y="1181.704" style="fill:#FFFFFF;" width="279.568" height="2.304"/>
		<g>
			<rect x="3883.375" y="1197.884" style="fill:#FFFFFF;" width="128.07" height="32.236"/>
			<rect x="4034.891" y="1253.573" style="fill:#FFFFFF;" width="128.053" height="120.455"/>
			<rect x="4034.891" y="1197.884" style="fill:#FFFFFF;" width="128.053" height="32.236"/>
			<rect x="3883.375" y="1253.573" style="fill:#FFFFFF;" width="128.07" height="120.455"/>
			<g>
				<polygon style="fill:#CECBCB;" points="4162.943,1184.007 4162.943,1197.884 4034.891,1197.884 4034.891,1187.653 
					4011.445,1187.653 4011.445,1197.884 3883.375,1197.884 3883.375,1184.007 				"/>
				<rect x="4011.445" y="1187.653" style="fill:#142D38;" width="23.445" height="10.231"/>
			</g>
			<rect x="4011.445" y="1253.573" style="fill:#2C5871;" width="23.445" height="120.455"/>
			<rect x="4011.445" y="1197.884" style="fill:#2C5871;" width="23.445" height="32.236"/>
			<rect x="4011.445" y="1096.449" style="fill:#2C5871;" width="23.445" height="91.205"/>
			<rect x="4034.891" y="1230.12" style="fill:#2C5871;" width="128.053" height="23.453"/>
			<rect x="3883.375" y="1230.12" style="fill:#2C5871;" width="128.07" height="23.453"/>
			<rect x="4011.445" y="1230.12" style="fill:#2C5871;" width="23.445" height="23.453"/>
			<rect x="4034.891" y="1096.449" style="fill:#FFFFFF;" width="157.795" height="91.205"/>
			<rect x="3853.643" y="1096.449" style="fill:#FFFFFF;" width="157.803" height="91.205"/>
		</g>
		<polygon style="fill:#142D38;" points="4096.805,1048.414 4062.609,1009.322 4031.336,1080.656 4035.244,1093.358 		"/>
		<path style="fill:#2C5871;" d="M4131.389,1097.578c0,0,4.5-44.282-15.043-56.008c-19.541-11.723-90.879,55.694-90.879,55.694
			L4131.389,1097.578z"/>
		<polygon style="fill:#142D38;" points="3948.594,1048.414 3982.797,1009.322 4014.063,1080.656 4010.158,1093.358 		"/>
		<path style="fill:#2C5871;" d="M3913.762,1096.568c0,0-4.25-43.272,15.291-54.998c19.541-11.723,90.877,55.694,90.877,55.694
			L3913.762,1096.568z"/>
		<path style="fill:#142D38;" d="M4009.348,1088.475c0,5.124,4.156,9.282,9.277,9.282h11.725c5.133,0,9.283-4.158,9.283-9.282l0,0
			c0-5.13-4.15-9.286-9.283-9.286h-11.725C4013.504,1079.189,4009.348,1083.345,4009.348,1088.475L4009.348,1088.475z"/>
	</g>
</g>
<g>
	<path style="fill:#ECF6F8;" d="M2197.212,2168.275c0,0-327.877-237.307-423.885-333.313
		c-96.008-96.011-97.818-228.25-97.818-228.25v-485.478l811.539-59.723v-1.866l12.686,0.93l12.678-0.93v1.866l811.547,59.723
		v485.478c0,0-1.813,132.239-97.82,228.25c-96.01,96.006-423.887,333.313-423.887,333.313s-97.211,70.428-104.607,269.283
		c7.396,198.854,104.607,269.285,104.607,269.285s327.877,237.305,423.887,333.314c96.008,96.012,97.82,228.249,97.82,228.249
		v485.478l-811.547,59.722v1.866l-12.678-0.931l-12.686,0.931v-1.866l-811.539-59.722v-485.478c0,0,1.811-132.237,97.818-228.249
		c96.008-96.01,423.885-333.314,423.885-333.314s97.207-70.431,104.604-269.285
		C2294.419,2238.703,2197.212,2168.275,2197.212,2168.275z"/>
	<g>
		<path style="fill:#4D596A;" d="M3381.371,867.245c26.863,0,48.639,21.778,48.639,48.639v211.432
			c0,26.862-21.775,48.636-48.639,48.636l-881.639,0.001V867.246L3381.371,867.245z"/>
		<path style="fill:#2D3C51;" d="M1569.458,1127.315V915.884c0-26.861,21.77-48.638,48.635-48.638h881.639v308.707h-881.639
			C1591.228,1175.952,1569.458,1154.178,1569.458,1127.315z"/>
		<path style="fill:#2D3C51;" d="M1618.093,4007.87c-26.865,0-48.635-21.775-48.635-48.637v-211.432
			c0-26.859,21.77-48.635,48.635-48.635h881.639v308.703H1618.093z"/>
		<path style="fill:#4D596A;" d="M3430.01,3747.802v211.432c0,26.861-21.775,48.637-48.639,48.637h-881.639v-308.703h881.639
			C3408.234,3699.167,3430.01,3720.942,3430.01,3747.802z"/>
	</g>
	<g>
		<g>
			<path style="fill:#E4A724;" d="M3171.963,1473.92c-1.736,32.874-18.701,236.68-184.873,369.619
				c-185.076,148.061-487.364,345.471-487.364,345.471V1473.92H3171.963z"/>
		</g>
		<g>
			<path style="fill:#CF972A;" d="M1827.502,1473.92c1.733,32.874,18.696,236.68,184.87,369.619
				c185.076,148.061,487.361,345.471,487.361,345.471V1473.92H1827.502z"/>
		</g>
	</g>
	<g>
		<g>
			<path style="fill:#CF972A;" d="M1827.502,3499.238c1.733-32.876,18.696-236.679,184.87-369.62
				c185.076-148.059,487.361-345.471,487.361-345.471v715.091H1827.502z"/>
		</g>
		<g>
			<path style="fill:#E4A724;" d="M3171.963,3499.238c-1.736-32.876-18.701-236.679-184.873-369.62
				c-185.074-148.059-487.364-345.471-487.364-345.471v715.091H3171.963z"/>
		</g>
	</g>
	<g>
		<path style="fill:#CF972A;" d="M2478.733,2278.604c0-11.439,9.276-20.711,20.715-20.711v41.426
			C2488.009,2299.319,2478.733,2290.046,2478.733,2278.604z"/>
		<path style="fill:#E4A724;" d="M2520.162,2278.604c0,11.441-9.275,20.715-20.714,20.715v-41.426
			C2510.887,2257.894,2520.162,2267.166,2520.162,2278.604z"/>
		<path style="fill:#E4A724;" d="M2520.162,2461.979c0,11.444-9.275,20.718-20.714,20.718v-41.429
			C2510.887,2441.269,2520.162,2450.54,2520.162,2461.979z"/>
		<path style="fill:#CF972A;" d="M2478.733,2461.979c0-11.439,9.276-20.71,20.715-20.71v41.429
			C2488.009,2482.697,2478.733,2473.423,2478.733,2461.979z"/>
		<path style="fill:#CF972A;" d="M2478.733,2645.354c0-11.437,9.276-20.71,20.715-20.71v41.424
			C2488.009,2666.067,2478.733,2656.793,2478.733,2645.354z"/>
		<path style="fill:#E4A724;" d="M2520.162,2645.354c0,11.439-9.275,20.714-20.714,20.714v-41.424
			C2510.887,2624.644,2520.162,2633.917,2520.162,2645.354z"/>
	</g>
</g>
<g>
	
		<ellipse transform="matrix(0.7071 -0.7071 0.7071 0.7071 -260.0482 1667.1351)" style="fill:#2C5871;" cx="1882.386" cy="1147.474" rx="546.694" ry="546.694"/>
	<g>
		<g>
			<g>
				<g>
					<path style="fill:#E0E0EA;" d="M2131.553,1200.147c37.6,0,68.07-30.475,68.07-68.065c0-37.598-30.471-68.076-68.07-68.076
						h-32.772v136.142H2131.553z"/>
				</g>
			</g>
			<path style="fill:#DA4643;" d="M2139.557,1429.159c0,10.802-8.762,19.564-19.558,19.564l0,0
				c-10.807,0-19.568-8.762-19.568-19.564V835.004c0-10.806,8.762-19.567,19.568-19.567l0,0c10.796,0,19.558,8.761,19.558,19.567
				V1429.159z"/>
			<path style="fill:#DA4643;" d="M1687.375,1009.857c-67.516,0-122.23,54.722-122.23,122.214
				c0,67.507,54.715,122.233,122.23,122.233c0.275,0,0.541,0,0.821,0L1687.375,1009.857z"/>
			<path style="fill:#E0E0EA;" d="M1693.848,1254.715c0,0,50.812,219.022,84.436,224.065c33.613,5.042,47.064-16.811,36.977-45.391
				c-10.079-28.573-26.896-188.273-23.537-206.765c3.363-18.495-103.527,27.862-103.527,27.862"/>
			<g>
				<g>
					<path style="fill:#FFFDF3;" d="M1740.975,1009.62h-47.127v244.912h47.127c0,0,246.359-41.238,367.925,192.42v-312.57v-4.604
						V817.209C1987.334,1050.864,1740.975,1009.62,1740.975,1009.62z"/>
				</g>
			</g>
			<path style="fill:#CBCAC7;" d="M1716.083,1050.113c0,0,247.103,42.027,371.502-141.205c0,0-38.658,166.419-368.146,171.466
				L1716.083,1050.113z"/>
		</g>
	</g>
</g>
<g>
	
		<ellipse transform="matrix(0.7071 -0.7071 0.7071 0.7071 494.606 2589.4207)" style="fill:#FFFFFF;" cx="3373.01" cy="697.668" rx="416.137" ry="416.138"/>
	<g>
		<g>
			<path style="fill:#FFFFFF;" d="M3210.648,443.956v473.873c-14.871-1.434-23.557-2.207-23.557-2.207l-19.793,70.932h410.424
				h34.061h4.371c10.908,0,20.125-7.25,23.105-17.184h1.029v-6.958V570.294V443.956H3210.648z"/>
			<path style="fill:#0D3759;" d="M3634.256,449.99v120.303v392.118v2.645l-0.771,2.572c-2.281,7.59-9.404,12.886-17.33,12.886
				h-4.371h-34.061h-402.479l16.309-58.426c4.029,0.371,10.355,0.964,18.52,1.752l6.611,0.63v-6.643V449.99H3634.256
				 M3640.289,443.956h-429.641v473.873c-14.871-1.434-23.557-2.207-23.557-2.207l-19.793,70.932h410.424h34.061h4.371
				c10.908,0,20.125-7.25,23.105-17.184h1.029v-6.958V570.294V443.956L3640.289,443.956z"/>
		</g>
		<g>
			<path style="fill:#FFFFFF;" d="M3136.016,443.956v126.338v110.082v282.036c0,13.333,10.809,24.142,24.141,24.142h38.424
				c13.334,0,24.143-10.809,24.143-24.142V680.375V570.294V443.956H3136.016z"/>
			<path style="fill:#0D3759;" d="M3216.684,449.99v120.303v110.082v282.036c0,9.982-8.121,18.103-18.104,18.103h-38.424
				c-9.986,0-18.105-8.121-18.105-18.103V680.375V570.294V449.99H3216.684 M3222.723,443.956h-86.707v126.338v110.082v282.036
				c0,13.333,10.809,24.142,24.141,24.142h38.424c13.334,0,24.143-10.809,24.143-24.142V680.375V570.294V443.956L3222.723,443.956z"
				/>
		</g>
		<path style="fill:#0D3759;" d="M3198.623,467.447v477.531c0,4.588-3.723,8.315-8.307,8.315h-21.898
			c-4.582,0-8.313-3.727-8.313-8.315V467.447h-7.457v477.531c0,8.702,7.072,15.773,15.77,15.773h21.898
			c8.699,0,15.77-7.071,15.77-15.773V467.447H3198.623z"/>
		<g>
			<g>
				<rect x="3175.635" y="467.447" style="fill:#0D3759;" width="7.461" height="464.485"/>
			</g>
		</g>
		<g>
			<g>
				<path style="fill:#0D3759;" d="M3260.793,574.271V484.37h23.74l18.67,32.947c5.332,9.47,10.672,20.669,14.672,30.807h0.398
					c-1.33-11.872-1.729-24.009-1.729-37.476V484.37h18.674v89.901h-21.344l-19.207-34.684
					c-5.338-9.603-11.205-21.207-15.604-31.747l-0.398,0.137c0.531,11.867,0.801,24.54,0.801,39.215v27.079H3260.793z"/>
				<path style="fill:#0D3759;" d="M3406.316,536.252h-33.076v21.341h36.936v16.678h-57.348V484.37h55.49v16.675h-35.078v18.671
					h33.076V536.252z"/>
				<path style="fill:#0D3759;" d="M3439.529,574.271l-21.336-89.901h21.734l6.805,37.078c2.004,10.67,3.873,22.278,5.336,31.347
					h0.268c1.467-9.736,3.596-20.54,5.873-31.612l7.604-36.813h21.602l7.207,37.874c1.998,10.54,3.471,20.144,4.801,30.152h0.268
					c1.332-10.008,3.336-20.548,5.197-31.214l7.34-36.813h20.672l-23.207,89.901h-22.006l-7.605-38.687
					c-1.73-9.069-3.197-17.47-4.268-27.744h-0.27c-1.6,10.14-3.064,18.675-5.193,27.744l-8.543,38.687H3439.529z"/>
				<path style="fill:#0D3759;" d="M3543.047,553.322c5.467,2.804,13.873,5.61,22.545,5.61c9.332,0,14.271-3.879,14.271-9.744
					c0-5.603-4.27-8.801-15.072-12.67c-14.941-5.2-24.678-13.468-24.678-26.544c0-15.335,12.807-27.08,34.016-27.08
					c10.133,0,17.6,2.139,22.936,4.544l-4.537,16.402c-3.602-1.734-10-4.267-18.803-4.267c-8.801,0-13.074,3.999-13.074,8.662
					c0,5.742,5.07,8.276,16.676,12.682c15.869,5.867,23.34,14.129,23.34,26.803c0,15.073-11.602,27.882-36.273,27.882
					c-10.279,0-20.408-2.667-25.48-5.476L3543.047,553.322z"/>
			</g>
		</g>
		<rect x="3248.457" y="611.668" style="fill:#0D3759;" width="352.209" height="64.751"/>
		<rect x="3248.457" y="704.672" style="fill:#0D3759;" width="169.736" height="18.841"/>
		<rect x="3430.934" y="704.672" style="fill:#0D3759;" width="169.732" height="18.841"/>
		<rect x="3248.457" y="759.137" style="fill:#0D3759;" width="169.736" height="18.841"/>
		<rect x="3430.934" y="759.137" style="fill:#0D3759;" width="169.732" height="18.841"/>
		<rect x="3248.457" y="813.594" style="fill:#0D3759;" width="169.736" height="18.84"/>
		<rect x="3430.934" y="813.594" style="fill:#0D3759;" width="169.732" height="18.84"/>
		<rect x="3248.457" y="868.056" style="fill:#0D3759;" width="169.736" height="18.838"/>
		<rect x="3430.934" y="868.056" style="fill:#0D3759;" width="169.732" height="18.838"/>
		<rect x="3248.457" y="922.512" style="fill:#0D3759;" width="169.736" height="18.841"/>
		<rect x="3430.934" y="922.512" style="fill:#0D3759;" width="169.732" height="18.841"/>
	</g>
</g>
<g>
	<polygon style="fill:#C44822;" points="1547.046,2178.779 2270.9,1982.917 2027.849,2690.863 1919.826,2422.813 1698.549,2639.872 
		1637.434,2578.129 1574.763,2510.823 1797.167,2299.815 	"/>
	<g>
		<polygon style="fill:#D2E9F7;" points="2234.553,1956.948 2009.257,2613.175 1909.126,2364.705 1704.021,2565.909 
			1647.361,2508.676 		"/>
		<polygon style="fill:#FFFFFF;" points="2234.553,1956.948 1563.576,2138.5 1795.427,2250.693 1589.267,2446.295 
			1647.361,2508.676 		"/>
	</g>
</g>
<g>
	<path style="fill:#FFFFFF;" d="M1567.897,3301.782c0,168.862-136.88,305.745-305.738,305.745
		c-168.857,0-305.742-136.883-305.742-305.745c0-168.853,136.885-305.74,305.742-305.74
		C1431.017,2996.042,1567.897,3132.93,1567.897,3301.782z"/>
	<g>
		<rect x="1107.658" y="3097.431" style="fill:#656F7A;" width="308.997" height="420.761"/>
		<g>
			<rect x="1133.087" y="3137.385" style="fill:#FFFDF5;" width="258.141" height="355.934"/>
			<g>
				<rect x="1147.873" y="3385.534" style="fill:#8A8387;" width="110.936" height="7.73"/>
				<rect x="1147.873" y="3397.52" style="fill:#8A8387;" width="110.936" height="7.735"/>
				<rect x="1147.873" y="3409.505" style="fill:#8A8387;" width="110.936" height="7.731"/>
				<rect x="1147.873" y="3421.493" style="fill:#8A8387;" width="110.936" height="7.718"/>
				<rect x="1147.873" y="3433.472" style="fill:#8A8387;" width="110.936" height="7.727"/>
				<rect x="1147.873" y="3445.457" style="fill:#8A8387;" width="110.936" height="7.72"/>
				<rect x="1147.873" y="3457.438" style="fill:#8A8387;" width="110.936" height="7.729"/>
				<rect x="1147.873" y="3469.419" style="fill:#8A8387;" width="110.936" height="7.731"/>
			</g>
			<g>
				<rect x="1270.86" y="3385.534" style="fill:#8A8387;" width="110.929" height="7.73"/>
				<rect x="1270.86" y="3397.52" style="fill:#8A8387;" width="110.929" height="7.735"/>
				<rect x="1270.86" y="3409.505" style="fill:#8A8387;" width="110.929" height="7.731"/>
				<rect x="1270.86" y="3421.493" style="fill:#8A8387;" width="110.929" height="7.718"/>
				<rect x="1270.86" y="3433.472" style="fill:#8A8387;" width="110.929" height="7.727"/>
				<rect x="1270.86" y="3445.457" style="fill:#8A8387;" width="110.929" height="7.72"/>
				<rect x="1270.86" y="3457.438" style="fill:#8A8387;" width="110.929" height="7.729"/>
			</g>
			<rect x="1147.873" y="3335.321" style="fill:#EBA8A0;" width="20.428" height="17.649"/>
			<rect x="1147.873" y="3361.004" style="fill:#83CFEE;" width="20.428" height="17.662"/>
			<rect x="1267.348" y="3335.321" style="fill:#C8DB57;" width="20.425" height="17.649"/>
			<rect x="1267.348" y="3361.004" style="fill:#F3BC5A;" width="20.425" height="17.662"/>
			<rect x="1179.333" y="3340.835" style="fill:#C0C0C0;" width="23.999" height="7.176"/>
			<rect x="1179.333" y="3367.325" style="fill:#C0C0C0;" width="23.999" height="6.619"/>
			<rect x="1296.36" y="3340.835" style="fill:#C0C0C0;" width="24.006" height="7.176"/>
			<rect x="1296.36" y="3367.333" style="fill:#C0C0C0;" width="24.006" height="6.622"/>
			<g>
				<rect x="1147.873" y="3244.094" style="fill:#8A8387;" width="232.094" height="7.727"/>
				<rect x="1147.873" y="3256.079" style="fill:#8A8387;" width="232.094" height="7.729"/>
				<rect x="1147.873" y="3268.06" style="fill:#8A8387;" width="232.094" height="7.732"/>
				<rect x="1147.873" y="3280.053" style="fill:#8A8387;" width="232.094" height="7.718"/>
				<rect x="1147.873" y="3292.025" style="fill:#8A8387;" width="232.094" height="7.727"/>
				<rect x="1147.873" y="3304.014" style="fill:#8A8387;" width="232.094" height="7.722"/>
				<rect x="1147.873" y="3315.994" style="fill:#8A8387;" width="232.094" height="7.728"/>
			</g>
			<g>
				<g>
					<g>
						<g>
							<rect x="1247.312" y="3154.489" style="fill:#8A8387;" width="111.506" height="36.49"/>
						</g>
					</g>
				</g>
				<rect x="1248.428" y="3199.497" style="fill:#C0C0C0;" width="109.271" height="9.198"/>
				<rect x="1248.428" y="3227.426" style="fill:#C0C0C0;" width="109.271" height="9.201"/>
				<rect x="1248.428" y="3213.46" style="fill:#C0C0C0;" width="109.271" height="9.201"/>
			</g>
			<g>
				<g>
					<rect x="1147.873" y="3157.856" style="fill:#C0C0C0;" width="92.392" height="9.2"/>
					<rect x="1147.873" y="3185.787" style="fill:#C0C0C0;" width="92.392" height="9.201"/>
					<rect x="1147.873" y="3171.821" style="fill:#C0C0C0;" width="92.392" height="9.201"/>
				</g>
				<g>
					<rect x="1147.873" y="3200.044" style="fill:#C0C0C0;" width="92.392" height="9.197"/>
					<rect x="1147.873" y="3227.976" style="fill:#C0C0C0;" width="92.392" height="9.195"/>
					<rect x="1147.873" y="3214.01" style="fill:#C0C0C0;" width="92.392" height="9.197"/>
				</g>
			</g>
		</g>
		<path style="fill:#FFFFFF;" d="M1331.189,3130.651h-138.064c-2.793,0-5.066-2.272-5.066-5.064v-23.203
			c0-2.793,2.273-5.068,5.066-5.068h138.064c2.793,0,5.068,2.275,5.068,5.068v23.203
			C1336.257,3128.379,1333.982,3130.651,1331.189,3130.651z M1193.125,3100.878c-0.828,0-1.506,0.674-1.506,1.506v23.203
			c0,0.827,0.678,1.504,1.506,1.504h138.064c0.83,0,1.505-0.677,1.505-1.504v-23.203c0-0.832-0.675-1.506-1.505-1.506H1193.125z"/>
		<path style="fill:#4D596A;" d="M1206.925,3115.391c4.201,3.069,7.949,6.719,11.126,10.839h88.211
			c3.177-4.12,6.926-7.77,11.126-10.839c5.431-0.113,9.802-4.546,9.802-10v-10.007c0-5.525-4.482-10.006-10.006-10.006h-110.052
			c-5.523,0-10.006,4.48-10.006,10.006v10.007C1197.126,3110.845,1201.495,3115.277,1206.925,3115.391z"/>
	</g>
</g>
<ellipse transform="matrix(0.7071 -0.7071 0.7071 0.7071 -1088.9713 3717.6899)" style="fill:#FFFFFF;" cx="3943.163" cy="3173.35" rx="325.232" ry="325.233"/>
<g>
	<path style="fill:#0A253D;" d="M3917.855,3189.298h22.148h6.324h22.152l173.455-42.828v175.268
		c0,13.672-11.088,24.754-24.758,24.754h-348.031c-13.672,0-24.754-11.082-24.754-24.754V3146.47L3917.855,3189.298z"/>
	<path style="fill:#1D4662;" d="M3769.146,3064.063h78.336h22.689h145.984h22.689h78.332c13.67,0,24.758,11.082,24.758,24.754
		v67.969l-173.455,42.825h-22.152h-6.324h-22.148l-173.463-42.825v-67.969C3744.393,3075.145,3755.475,3064.063,3769.146,3064.063z"
		/>
	<g>
		<path style="fill:#0A253D;" d="M4016.156,3024.964c0-1.138-0.928-2.066-2.061-2.066h-141.859c-1.137,0-2.064,0.929-2.064,2.066
			v28.785h-22.689v-28.785c0-13.673,11.08-24.755,24.754-24.755h141.859c13.666,0,24.75,11.082,24.75,24.755v28.785h-22.689
			V3024.964z"/>
		<path style="fill:#205978;" d="M3769.146,3053.749h78.336h22.689h145.984h22.689h78.332c13.67,0,24.758,11.076,24.758,24.752
			v67.969l-173.455,42.828h-22.152h-6.324h-22.148l-173.463-42.828v-67.969C3744.393,3064.825,3755.475,3053.749,3769.146,3053.749z
			"/>
	</g>
	<g>
		<path style="fill:#C5C9CA;" d="M3893.916,3206.614c0,13.672,11.08,24.754,24.752,24.754h48.453
			c13.672,0,24.758-11.082,24.758-24.754v-9.723c0-13.672-11.086-24.76-24.758-24.76h-48.453c-13.672,0-24.752,11.088-24.752,24.76
			V3206.614z"/>
		<path style="fill:#8EAEC1;" d="M3906.24,3205.393c0,10.23,8.295,18.521,18.527,18.521h36.254c10.229,0,18.527-8.291,18.527-18.521
			v-7.279c0-10.228-8.299-18.521-18.527-18.521h-36.254c-10.232,0-18.527,8.294-18.527,18.521V3205.393z"/>
	</g>
</g>
</svg>
