<?xml version="1.0" standalone="no"?>
<!DOCTYPE svg PUBLIC "-//W3C//DTD SVG 20010904//EN"
 "http://www.w3.org/TR/2001/REC-SVG-20010904/DTD/svg10.dtd">
<svg version="1.0" xmlns="http://www.w3.org/2000/svg"
 width="579.000000pt" height="161.000000pt" viewBox="0 0 579.000000 161.000000"
 preserveAspectRatio="xMidYMid meet">

<g transform="translate(0.000000,161.000000) scale(0.100000,-0.100000)"
fill="#9D9D9D" stroke="none">
<path d="M680 1424 c-380 -99 -577 -531 -404 -883 54 -110 172 -229 278 -282
107 -52 205 -73 321 -66 164 10 284 65 406 186 111 111 179 263 179 398 l0 53
-94 0 -93 0 -6 57 c-3 33 -19 82 -36 117 l-30 60 48 51 c82 87 82 88 15 156
-68 69 -180 131 -275 154 -80 18 -236 18 -309 -1z m280 -206 c87 -26 179 -95
226 -170 29 -46 64 -148 64 -188 l0 -30 -212 1 -213 2 -2 -59 c-1 -33 -5 -69
-8 -80 -6 -25 10 -34 48 -27 25 5 117 -12 147 -28 8 -4 41 -17 72 -29 99 -38
99 -58 -2 -126 -86 -58 -142 -74 -249 -74 -98 1 -164 22 -245 80 -55 40 -117
128 -141 201 -21 63 -22 186 -1 252 31 104 120 204 222 252 85 40 205 50 294
23z"/>
<path d="M2465 1177 c-3 -6 -4 -172 -3 -367 l3 -355 58 -3 57 -3 0 371 0 370
-55 0 c-35 0 -57 -5 -60 -13z"/>
<path d="M3307 1183 c-4 -3 -7 -170 -7 -370 l0 -363 60 0 60 0 0 31 0 30 26
-20 c31 -25 114 -51 159 -51 110 0 229 87 259 190 36 120 12 243 -61 321 -61
65 -108 82 -215 78 -72 -3 -91 -8 -126 -32 l-42 -27 0 110 0 110 -53 0 c-30 0
-57 -3 -60 -7z m377 -283 c78 -48 104 -172 55 -259 -75 -134 -269 -109 -314
42 -23 78 -6 144 53 200 54 52 139 59 206 17z"/>
<path d="M4637 1183 c-4 -3 -7 -170 -7 -370 l0 -363 60 0 60 0 0 370 0 370
-53 0 c-30 0 -57 -3 -60 -7z"/>
<path d="M4857 1183 c-4 -3 -7 -170 -7 -370 l0 -363 60 0 60 0 0 370 0 370
-53 0 c-30 0 -57 -3 -60 -7z"/>
<path d="M1930 1171 c-87 -27 -183 -112 -223 -199 -30 -65 -31 -232 -3 -307
27 -70 112 -156 187 -190 55 -24 70 -27 157 -23 76 2 107 8 143 26 120 59 189
164 197 303 l5 79 -207 0 -207 0 3 -52 3 -53 138 0 139 0 -6 -35 c-15 -93
-105 -159 -219 -160 -82 0 -129 21 -179 80 -43 49 -58 98 -58 184 0 147 96
246 240 246 88 0 154 -40 205 -123 9 -15 15 -13 62 14 l52 30 -21 35 c-30 51
-103 111 -164 134 -57 21 -191 27 -244 11z"/>
<path d="M2815 1009 c-51 -25 -90 -63 -123 -119 -25 -41 -27 -54 -27 -150 0
-118 14 -158 77 -216 59 -56 114 -78 198 -78 118 -1 211 52 263 149 19 34 22
56 22 145 0 89 -3 111 -22 146 -26 49 -90 108 -139 129 -55 23 -198 20 -249
-6z m202 -98 c145 -66 127 -310 -26 -351 -118 -31 -220 54 -221 183 0 85 34
138 110 171 47 20 87 19 137 -3z"/>
<path d="M4105 1011 c-125 -57 -186 -223 -139 -381 31 -103 149 -190 259 -190
44 0 118 24 154 49 l31 22 0 -30 0 -31 60 0 60 0 0 290 0 290 -60 0 -60 0 0
-32 c0 -29 -1 -30 -18 -15 -54 49 -208 64 -287 28z m192 -96 c50 -21 72 -42
94 -90 33 -73 16 -180 -37 -227 -90 -80 -221 -51 -271 60 -46 100 -11 211 80
253 51 23 86 24 134 4z"/>
<path d="M5016 1008 c4 -13 54 -136 112 -275 l105 -253 -37 -88 c-20 -48 -36
-90 -36 -93 0 -7 117 -6 123 1 2 3 54 129 115 280 61 151 125 308 141 349 17
41 31 80 31 87 0 10 -16 14 -57 14 l-58 0 -74 -193 c-41 -105 -77 -195 -80
-199 -4 -4 -42 82 -86 192 l-80 200 -63 0 c-61 0 -63 -1 -56 -22z"/>
</g>
</svg>
