<?xml version="1.0" standalone="no"?>
<!DOCTYPE svg PUBLIC "-//W3C//DTD SVG 20010904//EN"
 "http://www.w3.org/TR/2001/REC-SVG-20010904/DTD/svg10.dtd">
<svg version="1.0" xmlns="http://www.w3.org/2000/svg"
 width="561.000000pt" height="150.000000pt" viewBox="0 0 561.000000 150.000000"
 preserveAspectRatio="xMidYMid meet">

<g transform="translate(0.000000,150.000000) scale(0.100000,-0.100000)"
fill="#9D9D9D" stroke="none">
<path d="M611 1354 c-90 -24 -171 -73 -252 -154 -126 -125 -174 -253 -167
-439 5 -124 28 -200 89 -297 74 -117 222 -224 349 -253 58 -13 242 -13 300 0
147 33 305 161 373 299 55 113 71 186 64 305 -3 55 -11 117 -18 138 l-12 37
-222 0 -222 0 -56 -118 c-32 -65 -57 -124 -57 -131 0 -8 28 -10 108 -6 132 8
196 -2 200 -30 4 -27 -55 -95 -146 -167 -78 -61 -178 -148 -269 -232 -38 -35
-57 -46 -64 -39 -8 8 -2 61 21 179 17 93 36 184 41 201 6 18 7 37 4 43 -3 5
-46 10 -94 10 -118 0 -126 9 -83 93 18 34 32 69 32 77 0 8 7 29 16 45 9 17 29
56 45 87 27 53 32 57 71 63 24 4 102 5 173 3 l130 -3 3 141 3 141 -45 12 c-62
15 -250 13 -315 -5z"/>
<path d="M4290 765 l0 -365 70 0 70 0 0 365 0 365 -70 0 -70 0 0 -365z"/>
<path d="M4570 765 l0 -365 70 0 70 0 0 365 0 365 -70 0 -70 0 0 -365z"/>
<path d="M1803 1086 c-72 -34 -134 -95 -168 -163 -24 -48 -29 -74 -33 -148 -5
-125 18 -187 102 -271 85 -85 146 -107 276 -102 110 5 172 30 241 99 62 62 89
128 89 222 l0 77 -192 -2 -191 -3 -2 -52 -2 -53 124 0 c78 0 123 -4 123 -10 0
-23 -41 -89 -69 -113 -35 -29 -124 -51 -167 -42 -126 28 -186 101 -187 229 0
85 18 130 73 180 81 73 198 73 279 0 37 -32 42 -34 115 -34 46 0 76 4 76 10 0
23 -30 67 -77 111 -76 74 -100 83 -238 87 -111 3 -124 1 -172 -22z"/>
<path d="M2962 942 c-114 -41 -174 -123 -180 -248 -7 -128 40 -218 140 -268
44 -22 65 -26 138 -26 72 0 94 4 138 26 98 48 141 126 142 249 0 129 -48 209
-154 256 -69 30 -157 34 -224 11z m192 -130 c56 -39 78 -84 74 -154 -7 -98
-71 -158 -168 -158 -59 0 -97 17 -134 60 -54 65 -54 155 0 220 61 72 150 85
228 32z"/>
<path d="M2410 675 l0 -275 70 0 70 0 0 170 0 170 29 32 c25 28 37 33 88 38
l58 5 0 65 c0 73 -4 77 -80 65 -27 -4 -53 -16 -69 -32 l-26 -26 0 32 0 31 -70
0 -70 0 0 -275z"/>
<path d="M3390 945 c0 -3 32 -112 71 -243 39 -130 76 -252 81 -270 l9 -33 76
3 76 3 47 178 c26 98 50 180 52 183 3 2 27 -79 54 -181 l49 -185 75 0 75 0 49
168 c27 92 62 209 78 261 15 51 28 100 28 107 0 10 -16 14 -63 14 l-63 0 -43
-182 c-50 -213 -52 -221 -57 -216 -2 3 -26 92 -53 199 l-49 194 -74 3 -75 3
-48 -193 c-26 -106 -51 -196 -55 -201 -3 -4 -28 83 -54 193 l-48 200 -69 0
c-38 0 -69 -2 -69 -5z"/>
<path d="M4790 944 c0 -3 48 -122 106 -263 59 -141 107 -260 107 -266 0 -5
-19 -53 -42 -105 -24 -52 -45 -101 -48 -108 -4 -9 14 -12 69 -12 l75 0 48 113
c26 61 96 227 156 368 60 141 109 261 109 268 0 8 -21 11 -72 9 l-71 -3 -67
-178 c-37 -98 -70 -178 -75 -178 -4 0 -38 80 -75 178 l-66 178 -77 3 c-42 2
-77 0 -77 -4z"/>
</g>
</svg>
