<?xml version="1.0" standalone="no"?>
<!DOCTYPE svg PUBLIC "-//W3C//DTD SVG 20010904//EN"
 "http://www.w3.org/TR/2001/REC-SVG-20010904/DTD/svg10.dtd">
<svg version="1.0" xmlns="http://www.w3.org/2000/svg"
 width="525.000000pt" height="168.000000pt" viewBox="0 0 525.000000 168.000000"
 preserveAspectRatio="xMidYMid meet">

<g transform="translate(0.000000,168.000000) scale(0.100000,-0.100000)"
fill="#9D9D9D" stroke="none">
<path d="M634 1359 c-15 -17 -20 -42 -24 -126 -7 -141 -9 -142 -183 -143 -122
0 -129 -1 -152 -25 -22 -21 -25 -33 -25 -100 0 -67 3 -79 25 -100 23 -24 29
-25 164 -25 l139 0 42 -35 42 -35 162 0 c157 0 163 -1 184 -23 19 -20 22 -35
22 -105 0 -128 -13 -135 -229 -130 -174 4 -182 9 -192 119 -4 47 -13 79 -26
97 -20 27 -22 27 -152 30 -128 3 -132 2 -156 -22 -22 -22 -25 -33 -25 -101 0
-67 3 -79 25 -100 23 -24 29 -25 155 -25 126 0 132 -1 155 -25 23 -22 25 -32
25 -115 0 -88 1 -93 29 -121 l29 -29 155 0 c141 0 157 2 181 21 24 19 26 26
26 103 0 92 13 141 40 156 10 6 75 10 144 10 118 0 127 1 153 24 26 23 28 29
28 105 0 70 -3 83 -23 103 -21 21 -33 23 -172 28 -146 5 -149 6 -177 33 l-29
27 -160 0 c-136 0 -162 3 -180 18 -33 27 -44 56 -44 121 0 49 4 65 26 90 l26
31 162 0 c160 0 163 0 186 -25 17 -19 24 -41 29 -93 11 -123 34 -137 210 -130
89 3 103 6 123 26 20 20 23 33 23 102 0 69 -3 82 -23 102 -21 21 -33 23 -145
26 -67 1 -132 5 -145 8 -34 7 -52 60 -52 154 0 121 1 120 -208 120 -159 0
-170 -1 -188 -21z"/>
<path d="M1724 1076 c-60 -26 -74 -58 -74 -162 0 -89 1 -95 29 -126 l29 -33
188 -3 c118 -2 193 -7 202 -14 8 -7 12 -27 10 -52 l-3 -41 -162 -3 c-154 -2
-163 -1 -175 18 -11 16 -23 20 -72 20 l-59 0 5 -52 c4 -42 11 -57 37 -80 l31
-28 218 0 c198 0 220 2 249 20 46 28 63 67 63 147 0 84 -21 131 -70 155 -29
15 -63 18 -205 18 -187 0 -195 2 -195 56 0 51 13 55 176 52 144 -3 149 -4 159
-25 9 -20 17 -23 69 -23 l59 0 -5 52 c-5 44 -11 57 -42 85 l-36 33 -197 0
c-143 -1 -207 -5 -229 -14z"/>
<path d="M2320 806 l0 -286 70 0 69 0 3 78 3 77 210 5 c239 6 253 10 286 77
18 38 21 57 17 138 -4 106 -18 134 -79 170 -31 18 -55 20 -306 23 l-273 3 0
-285z m498 148 c31 -21 32 -114 2 -144 -19 -19 -31 -20 -188 -18 l-167 3 -3
74 c-2 41 -1 80 2 88 8 21 323 19 354 -3z"/>
<path d="M3062 856 c3 -219 4 -236 24 -262 50 -68 55 -69 290 -72 l214 -3 0
60 0 61 -178 0 c-161 0 -181 2 -195 18 -15 16 -17 47 -17 225 l0 207 -71 0
-70 0 3 -234z"/>
<path d="M3662 856 c3 -258 4 -260 72 -310 26 -20 41 -21 246 -21 205 0 220 1
247 21 58 43 63 66 63 317 l0 228 -65 -3 -65 -3 -3 -201 c-3 -261 10 -244
-183 -244 -136 0 -144 1 -158 22 -13 19 -16 58 -16 225 l0 203 -71 0 -70 0 3
-234z"/>
<path d="M4461 1077 c-57 -20 -75 -56 -79 -151 -3 -63 0 -91 13 -115 27 -53
61 -61 259 -61 163 0 176 -1 186 -19 14 -26 13 -64 -2 -79 -8 -8 -61 -12 -171
-12 -150 0 -159 1 -164 20 -5 17 -14 20 -64 20 l-59 0 0 -51 c0 -43 5 -55 29
-80 l29 -29 217 0 c237 0 269 6 302 56 25 39 26 188 1 227 -32 47 -51 52 -253
57 l-190 5 -3 41 c-5 62 4 65 169 62 138 -3 144 -4 154 -25 8 -20 17 -23 67
-23 l58 0 0 51 c0 45 -4 55 -34 85 l-34 34 -198 -1 c-127 0 -211 -4 -233 -12z"/>
</g>
</svg>
