<?xml version="1.0" standalone="no"?>
<!DOCTYPE svg PUBLIC "-//W3C//DTD SVG 20010904//EN"
 "http://www.w3.org/TR/2001/REC-SVG-20010904/DTD/svg10.dtd">
<svg version="1.0" xmlns="http://www.w3.org/2000/svg"
 width="496.000000pt" height="136.000000pt" viewBox="0 0 496.000000 136.000000"
 preserveAspectRatio="xMidYMid meet">

<g transform="translate(0.000000,136.000000) scale(0.100000,-0.100000)"
fill="#9D9D9D" stroke="none">
<path d="M4650 1065 l0 -175 34 0 c19 0 36 5 38 10 2 7 14 7 37 -1 79 -28 155
33 154 121 -1 58 -15 85 -56 110 -38 24 -72 25 -109 6 l-28 -15 0 60 0 59 -35
0 -35 0 0 -175z m178 9 c49 -34 15 -124 -47 -124 -32 0 -71 39 -71 70 0 10 9
29 21 44 24 30 63 34 97 10z"/>
<path d="M3900 1143 c0 -4 19 -63 43 -130 35 -103 45 -123 63 -123 15 0 24 12
38 53 35 99 36 99 65 22 21 -54 32 -71 49 -73 12 -2 22 -1 22 2 0 2 20 62 45
131 l45 126 -32 -3 c-29 -3 -33 -8 -56 -71 -14 -37 -26 -66 -28 -65 -1 2 -13
32 -27 68 -34 91 -56 93 -87 8 -12 -35 -25 -66 -29 -70 -4 -4 -17 24 -30 62
-22 65 -26 70 -53 70 -15 0 -28 -3 -28 -7z"/>
<path d="M4383 1135 c-41 -17 -73 -69 -73 -116 0 -107 137 -166 225 -97 l27
21 -26 14 c-19 10 -31 11 -45 3 -32 -17 -76 -11 -101 13 l-25 22 109 3 108 3
-7 36 c-9 49 -30 78 -70 97 -40 19 -79 20 -122 1z m112 -65 c18 -20 17 -20
-50 -20 -67 0 -68 0 -50 20 11 12 31 20 50 20 19 0 39 -8 50 -20z"/>
<path d="M377 1063 c-2 -5 -5 -172 -6 -373 l-2 -365 -22 3 c-48 6 -103 65
-117 128 -5 21 -10 155 -10 297 0 285 0 283 -57 208 -53 -69 -63 -120 -63
-332 0 -167 2 -195 21 -245 27 -73 75 -125 142 -155 50 -23 62 -24 272 -24
210 0 222 1 273 24 57 26 99 68 134 134 22 40 23 53 23 267 l0 225 -28 57
c-35 70 -82 111 -161 138 -51 17 -86 20 -227 20 -92 0 -170 -3 -172 -7z m373
-135 c89 -45 105 -102 98 -340 -4 -151 -12 -180 -60 -225 -37 -35 -72 -43
-184 -43 l-104 0 0 315 0 315 103 0 c87 0 110 -4 147 -22z"/>
<path d="M3080 865 l0 -115 -38 25 c-75 49 -181 42 -249 -18 -112 -99 -110
-302 4 -396 69 -57 177 -63 248 -15 l35 23 0 -24 c0 -24 3 -25 60 -25 l60 0 0
330 0 330 -60 0 -60 0 0 -115z m-44 -198 c119 -109 -7 -310 -143 -227 -47 28
-66 72 -61 138 4 48 10 60 41 89 30 27 45 33 82 33 37 0 52 -6 81 -33z"/>
<path d="M1140 645 l0 -325 150 0 150 0 0 60 0 60 -90 0 -90 0 0 265 0 265
-60 0 -60 0 0 -325z"/>
<path d="M2346 796 c-21 -8 -43 -19 -49 -25 -17 -17 -27 -13 -27 9 0 18 -7 20
-60 20 l-60 0 0 -240 0 -240 60 0 60 0 0 140 c0 152 10 195 51 224 31 21 71
20 100 -3 23 -19 24 -24 27 -190 l3 -171 60 0 61 0 -4 194 c-3 178 -5 197 -24
222 -48 64 -124 87 -198 60z"/>
<path d="M3499 795 c-50 -16 -109 -68 -136 -118 -9 -18 -18 -65 -21 -104 -4
-64 -1 -79 22 -128 55 -112 179 -160 312 -120 46 13 124 67 124 84 0 5 -21 17
-47 28 l-48 19 -40 -23 c-78 -44 -162 -22 -196 52 l-18 40 189 3 190 2 0 48
c0 162 -163 268 -331 217z m151 -100 c27 -14 60 -51 60 -67 0 -5 -56 -8 -125
-8 -69 0 -125 3 -125 8 1 13 29 45 57 64 34 22 94 23 133 3z"/>
<path d="M1570 655 c0 -183 11 -234 58 -284 71 -74 214 -81 287 -14 55 52 65
91 65 276 l0 167 -55 0 -55 0 0 -127 c-1 -154 -11 -211 -40 -235 -33 -27 -82
-23 -111 8 -23 25 -24 32 -27 190 l-3 164 -60 0 -59 0 0 -145z"/>
<path d="M3929 778 c5 -13 48 -115 96 -228 48 -113 89 -211 92 -217 3 -7 22
-13 42 -13 l37 0 66 158 c37 86 82 194 102 240 l36 83 -62 -3 -61 -3 -55 -132
c-31 -73 -59 -133 -63 -133 -3 0 -31 60 -62 133 l-55 132 -61 3 c-60 3 -61 3
-52 -20z"/>
</g>
</svg>
