<?xml version="1.0" standalone="no"?>
<!DOCTYPE svg PUBLIC "-//W3C//DTD SVG 20010904//EN"
 "http://www.w3.org/TR/2001/REC-SVG-20010904/DTD/svg10.dtd">
<svg version="1.0" xmlns="http://www.w3.org/2000/svg"
 width="600.000000pt" height="153.000000pt" viewBox="0 0 600.000000 153.000000"
 preserveAspectRatio="xMidYMid meet">

<g transform="translate(0.000000,153.000000) scale(0.100000,-0.100000)"
fill="#9D9D9D" stroke="none">
<path d="M530 1307 c-94 -32 -156 -72 -230 -146 -69 -70 -130 -177 -149 -261
-16 -70 -13 -229 5 -291 58 -194 221 -355 410 -404 74 -19 213 -19 287 0 124
32 260 129 337 240 34 49 76 146 85 198 l7 37 -35 0 c-75 0 -158 36 -240 105
-120 100 -161 118 -284 123 -108 4 -153 -5 -198 -40 -37 -29 -65 -90 -65 -141
0 -56 40 -136 82 -163 51 -32 152 -65 216 -70 42 -3 49 -1 27 5 -94 25 -225
118 -225 159 0 41 28 55 94 48 73 -8 146 -40 211 -95 58 -49 115 -81 145 -81
51 0 -5 -59 -100 -103 -52 -25 -81 -32 -150 -35 -74 -4 -92 -1 -140 21 -146
66 -236 210 -223 357 19 203 194 355 387 337 91 -9 146 -32 212 -89 71 -60
151 -100 216 -106 43 -4 48 -2 48 15 0 39 -73 165 -130 226 -66 70 -140 119
-236 153 -91 34 -268 34 -364 1z"/>
<path d="M1759 1105 c-106 -39 -169 -93 -216 -185 -25 -49 -28 -65 -28 -155 0
-93 2 -105 33 -167 38 -78 82 -120 168 -160 83 -39 172 -46 292 -24 82 15 107
15 165 -1 16 -4 17 7 15 164 l-3 168 -144 3 c-80 1 -148 -1 -152 -5 -4 -4 -11
-26 -15 -47 -6 -36 -5 -39 12 -31 10 5 52 11 92 13 l72 4 0 -90 0 -90 -37 -13
c-20 -6 -68 -12 -105 -11 -128 0 -223 71 -247 183 -25 115 -7 246 43 312 73
96 241 116 311 38 14 -17 19 -36 19 -77 l-1 -54 41 0 c62 0 86 21 86 76 0 59
-49 115 -126 144 -64 24 -216 27 -275 5z"/>
<path d="M3960 1116 c0 -2 7 -20 15 -39 21 -52 21 -589 0 -627 -8 -14 -14 -28
-15 -32 0 -5 43 -8 95 -8 52 0 95 2 95 4 0 2 -7 20 -15 39 -12 30 -15 94 -15
352 l0 315 -80 0 c-44 0 -80 -2 -80 -4z"/>
<path d="M5545 1106 c-62 -28 -105 -97 -105 -168 0 -24 -4 -28 -30 -28 -27 0
-30 -3 -30 -30 0 -27 3 -30 30 -30 l30 0 0 -198 c0 -163 -3 -201 -16 -220
l-15 -22 101 0 101 0 -16 30 c-12 23 -15 68 -15 220 l0 190 60 0 60 0 0 30 0
30 -60 0 -60 0 0 48 c0 63 18 96 54 100 38 5 66 -23 66 -65 0 -32 2 -33 38
-33 90 0 98 101 12 145 -36 19 -164 19 -205 1z"/>
<path d="M2535 901 c-17 -10 -43 -33 -58 -50 l-27 -33 0 46 0 46 -85 0 -86 0
16 -30 c21 -41 22 -384 1 -435 l-15 -35 99 0 98 0 -15 31 c-23 46 -15 270 12
324 21 42 75 85 106 85 33 0 61 -37 54 -71 -6 -28 -5 -29 28 -29 94 0 121 111
37 155 -41 21 -128 19 -165 -4z"/>
<path d="M2936 900 c-60 -23 -112 -71 -137 -125 -27 -58 -26 -171 2 -230 69
-147 285 -194 408 -88 49 41 59 68 35 94 -23 25 -27 24 -43 -11 -33 -75 -150
-106 -221 -57 -46 31 -47 43 -4 52 90 16 218 105 254 176 38 74 14 151 -60
190 -48 26 -167 25 -234 -1z m147 -51 c30 -16 37 -28 37 -71 0 -46 -38 -92
-122 -149 -91 -62 -88 -63 -88 28 0 98 26 159 80 185 41 21 63 22 93 7z"/>
<path d="M3605 906 c-22 -8 -57 -34 -77 -57 l-38 -42 0 52 0 51 -80 0 c-44 0
-80 -2 -80 -4 0 -2 7 -17 15 -32 12 -23 15 -69 15 -209 0 -158 -2 -186 -19
-218 l-19 -37 99 0 99 0 -15 36 c-20 48 -21 261 -1 307 19 45 48 68 93 74 51
6 89 -10 113 -49 17 -29 20 -51 20 -171 0 -104 -4 -145 -15 -167 l-16 -30 101
0 100 0 -17 27 c-15 23 -19 58 -23 215 l-5 188 -37 37 c-35 35 -42 38 -105 40
-42 2 -84 -2 -108 -11z"/>
<path d="M4376 900 c-101 -40 -156 -122 -156 -236 0 -124 65 -217 174 -249
106 -32 211 -10 271 56 36 41 43 67 23 87 -18 18 -24 15 -48 -22 -46 -75 -151
-101 -220 -53 -47 31 -47 43 -3 52 94 17 223 109 258 181 35 75 4 158 -72 190
-47 20 -168 17 -227 -6z m158 -46 c8 -3 20 -21 26 -40 10 -29 9 -41 -9 -77
-20 -40 -112 -126 -166 -155 -23 -12 -25 -10 -36 30 -14 53 -6 130 19 171 34
60 111 92 166 71z"/>
<path d="M4914 901 c-50 -23 -74 -55 -74 -98 0 -58 69 -75 85 -21 15 49 56 73
125 73 73 0 97 -19 106 -88 l7 -47 -100 0 c-159 0 -247 -38 -273 -116 -36
-108 61 -204 205 -204 56 0 110 15 136 36 22 19 29 17 29 -6 0 -18 7 -20 80
-20 l80 0 -15 36 c-11 27 -15 76 -15 193 0 189 -8 213 -85 251 -69 34 -229 41
-291 11z m255 -301 c-1 -60 -2 -61 -48 -96 -44 -34 -49 -36 -106 -31 -48 5
-64 11 -82 32 -43 50 -22 126 39 139 13 3 32 7 43 9 11 3 50 5 87 6 l68 1 -1
-60z"/>
</g>
</svg>
